<?xml version="1.0" encoding="utf-8"?>

<!DOCTYPE svg PUBLIC "-//W3C//DTD SVG 1.1//EN" "http://www.w3.org/Graphics/SVG/1.1/DTD/svg11.dtd">
<svg version="1.1" id="Layer_1" xmlns="http://www.w3.org/2000/svg" xmlns:xlink="http://www.w3.org/1999/xlink" x="0px" y="0px"
	 viewBox="0 0 1610.178 1660.197" enable-background="new 0 0 1610.178 1660.197" xml:space="preserve">
<g>
	<g id="XMLID_226_">
		<g>
			<path fill="#8A5D3B" d="M1386.368,80.574c110.428-48.665,206.08,6.538,193.484,97.352
				c-12.597,90.792-24.954,122.763-3.879,143.838c0,0-33.41-4.359-50.844-23.973c0,0-16.846,81.617-40.144,106.004
				c-6.168-6.407-12.292-12.052-18.176-16.955c10.94-11.79,36.308-46.028,51.934-122.48c0,0,14.536,12.989,30.359,21.685
				c0,0-5.1-42.737,12.335-87.785c17.435-45.047-22.513-129.28-103.868-121.325c-81.377,7.976-80.288,46.29-152.207,44.11
				c-18.176-0.545-31.819-2.746-42.062-5.732c-4.38-5.23-9.11-10.33-13.991-14.776c3.552-0.392,6.93-0.894,10.156-1.482
				C1277.139,106.748,1314.82,112.109,1386.368,80.574z"/>
			<path fill="#8A5D3B" d="M1421.281,358.115c46.311,63.507,107.159,174.654,64.814,342.661
				c-4.751,18.895-7.257,36.504-7.955,52.893c-16.411-43.151-34.369-71.418-34.369-71.418
				c60.848,299.03-54.266,390.345-54.266,390.345c-11.899-18.525-6.604-104.544-6.604-104.544
				c-13.883,29.203-24.344,55.944-32.037,80.331c-87.654,196.448-193.331,267.887-193.331,267.887s-27.613-66.841-75.558-100.251
				c-47.946-33.41-75.537-111.866-75.537-111.866c-2.92,33.41,15.975,124.943,66.819,174.349
				c6.952,6.756,13.033,14.275,18.307,22.229c-8.238,27.634-16.759,71.657-27.743,66.383c-18.154-8.718-45.767-30.511-45.767-30.511
				c4.642,11.006,12.488,22.491,21.271,33.257c-17.522,49.319-54.68,96.066-54.68,96.066c2.899-21.794-24.714-34.87-24.714-34.87
				c-56.511,32.69-154.844,158.243-154.844,158.243s-98.354-125.553-154.865-158.243c0,0-27.591,13.076-24.692,34.87
				c0,0-37.158-46.769-54.702-96.088c8.805-10.766,16.65-22.251,21.292-33.235c0,0-27.612,21.794-45.767,30.511
				c-10.984,5.274-19.527-38.727-27.743-66.362c5.252-7.955,11.333-15.495,18.285-22.251
				c50.866-49.406,69.74-140.939,66.841-174.349c0,0-27.612,78.457-75.558,111.866c-47.946,33.41-75.537,100.251-75.537,100.251
				s-105.655-71.418-193.287-267.778c-7.693-24.431-18.176-51.193-32.08-80.44c0,0,5.296,86.019-6.625,104.544
				c0,0-115.114-91.315-54.244-390.345c0,0-17.958,28.266-34.368,71.418c-0.697-16.389-3.204-33.998-7.976-52.893
				c-42.345-168.007,18.503-279.154,64.814-342.661c-0.806,0.305-20.922,8.173-45.505,28.724
				c-10.94-11.79-36.308-46.028-51.934-122.48c0,0-14.558,12.989-30.358,21.685c0,0,5.078-42.737-12.357-87.785
				s22.513-129.28,103.89-121.325c81.377,7.976,80.266,46.29,152.185,44.11c18.154-0.545,31.819-2.746,42.062-5.71
				c-14.035,16.846-24.496,35.001-25.607,36.984c12.488-19.309,45.222-40.231,63.158-50.736
				c28.593-0.458,64.771-7.105,109.644-25.368c144.557-58.843,315.506,29.792,315.506,29.792s162.014-88.635,306.571-29.792
				c44.873,18.263,81.05,24.91,109.644,25.368c17.914,10.505,50.67,31.426,63.136,50.736c-1.111-1.983-11.572-20.137-25.607-37.006
				c10.243,2.986,23.886,5.187,42.062,5.732c71.919,2.179,70.829-36.134,152.207-44.11c81.355-7.955,121.303,76.278,103.868,121.325
				c-17.435,45.047-12.335,87.785-12.335,87.785c-15.822-8.696-30.359-21.685-30.359-21.685
				c-15.626,76.452-40.994,110.69-51.934,122.48C1442.225,366.288,1422.088,358.42,1421.281,358.115z"/>
			<path fill="#8A5D3B" d="M1484.984,403.795c38.836,40.362,79.765,111.997,72.573,232.145
				c-13.229,220.965-38.771,230.228,22.295,300.359c0,0-46.072-22.861-76.256-75.079c-3.313-40.078-13.992-77.433-25.455-107.551
				c0.697-16.389,3.204-33.998,7.955-52.893c42.345-168.007-18.503-279.154-64.814-342.661c0.806,0.305,20.944,8.173,45.527,28.724
				c-3.291,3.552-5.274,5.056-5.274,5.056l19.266,15.582C1482.216,406.475,1483.611,405.233,1484.984,403.795z"/>
			<path fill="#8A5D3B" d="M1503.596,861.22c3.574,43.609-1.613,90.443-24.104,134.619
				c-72.769,142.879-138.912,215.648-113.828,269.914c-1.09-1.046-38.596-37.616-32.995-125.749
				c17.544-44.001,26.828-75.079,26.828-75.079l23.406-96.873c0,0-5.296,86.019,6.604,104.544c0,0,115.114-91.315,54.266-390.345
				c0,0,17.958,28.266,34.369,71.418C1476.245,798.259,1487.73,833.804,1503.596,861.22z"/>
			<path fill="#8A5D3B" d="M1484.984,403.795c-1.373,1.438-2.768,2.681-4.184,3.683l-19.266-15.582c0,0,1.983-1.504,5.274-5.056
				C1472.693,391.743,1478.816,397.387,1484.984,403.795z"/>
			<path fill="#8A5D3B" d="M1478.141,753.669c11.463,30.119,22.142,67.473,25.455,107.551
				C1487.73,833.804,1476.245,798.259,1478.141,753.669z"/>
			<path fill="#8A5D3B" d="M1382.903,968.053l-23.406,96.873c0,0-9.284,31.078-26.828,75.079
				c1.656-25.934,7.039-56.337,18.198-91.62C1361.916,1023.626,1372.682,996.886,1382.903,968.053z"/>
			<path fill="#8A5D3B" d="M1350.866,1048.384c7.693-24.387,18.154-51.128,32.037-80.331
				C1372.682,996.886,1361.916,1023.626,1350.866,1048.384z"/>
			<path fill="#8A5D3B" d="M1350.866,1048.384c-11.158,35.284-16.541,65.686-18.198,91.62
				c-36.243,90.879-107.748,236.853-205.644,277.977c0,0-1.417-44.241-19.789-87.719c1.874-22.426,2.354-40.144,2.354-40.144
				s-10.352-11.071-14.536,0c-1.155,3.073-2.332,6.691-3.487,10.614c-5.274-7.955-11.354-15.474-18.307-22.229
				c-50.844-49.406-69.74-140.939-66.819-174.349c0,0,27.591,78.457,75.537,111.866c47.946,33.41,75.558,100.251,75.558,100.251
				S1263.212,1244.831,1350.866,1048.384z"/>
			<path fill="#8A5D3B" d="M1263.3,115.313c14.035,16.868,24.496,35.022,25.607,37.006c-12.466-19.309-45.222-40.231-63.136-50.736
				c4.163,0.087,8.194,0.044,12.052-0.153C1242.094,106.094,1249.722,111.39,1263.3,115.313z"/>
			<path fill="#8A5D3B" d="M1225.88,80.966c28.462,4.424,60.935,4.577,89.266-7.628c-0.632,0.697-17.304,18.895-55.683,25.716
				c-9.611-4.184-13.294-9.044-13.294-9.044l-10.003,0.654c-3.705-2.136-7.432-3.661-11.093-4.402L1225.88,80.966z"/>
			<path fill="#8A5D3B" d="M1259.464,99.055c-3.225,0.588-6.603,1.09-10.156,1.482c-4.293-3.923-8.696-7.323-13.142-9.872
				l10.003-0.654C1246.17,90.01,1249.853,94.87,1259.464,99.055z"/>
			<path fill="#8A5D3B" d="M1249.308,100.537c4.882,4.446,9.611,9.546,13.991,14.776c-13.577-3.923-21.205-9.219-25.477-13.883
				C1241.811,101.256,1245.647,100.951,1249.308,100.537z"/>
			<path fill="#8A5D3B" d="M1249.308,100.537c-3.661,0.414-7.497,0.719-11.485,0.894c-5.274-5.732-5.47-10.505-5.47-10.505
				l3.814-0.262C1240.612,93.214,1245.015,96.614,1249.308,100.537z"/>
			<path fill="#8A5D3B" d="M1236.167,90.664l-3.814,0.262c0,0,0.196,4.773,5.47,10.505c-3.858,0.196-7.889,0.24-12.052,0.153
				c-7.323-4.293-12.183-6.843-12.183-6.843s-20.464-13.076,10.047-8.717c0.479,0.065,0.959,0.153,1.438,0.24
				C1228.735,87.003,1232.462,88.528,1236.167,90.664z"/>
			<path fill="#8A5D3B" d="M1225.88,80.966l-0.806,5.296c-0.479-0.087-0.959-0.174-1.438-0.24
				c-30.511-4.359-10.047,8.717-10.047,8.717s4.86,2.55,12.183,6.843c-28.593-0.458-64.771-7.105-109.644-25.368
				c-144.557-58.843-306.571,29.792-306.571,29.792s0.915-11.79-0.196-12.771c14.58-13.73,140.046-110.733,343.097-33.736
				C1152.457,59.499,1185.017,74.646,1225.88,80.966z"/>
			<path fill="#8A5D3B" d="M1109.589,1290.118c0,0-0.479,17.718-2.354,40.144c-4.25-10.069-9.415-20.094-15.67-29.53
				c1.155-3.923,2.332-7.541,3.487-10.614C1099.237,1279.047,1109.589,1290.118,1109.589,1290.118z"/>
			<path fill="#8A5D3B" d="M1107.236,1330.262c-2.681,32.473-8.26,74.839-19.44,87.719c0,0-12.88-10.439-27.918-25.542
				c2.572-4.991,3.945-7.889,3.945-7.889l-21.641-23.232c-0.872,2.855-1.831,5.71-2.855,8.543
				c-8.783-10.766-16.629-22.251-21.271-33.257c0,0,27.612,21.794,45.767,30.511c10.984,5.274,19.505-38.749,27.743-66.383
				C1097.821,1310.169,1102.986,1320.194,1107.236,1330.262z"/>
			<path fill="#8A5D3B" d="M1042.182,1361.318l21.641,23.232c0,0-1.373,2.899-3.945,7.889c-6.734-6.756-13.904-14.471-20.551-22.578
				C1040.351,1367.028,1041.31,1364.173,1042.182,1361.318z"/>
			<path fill="#8A5D3B" d="M1039.327,1369.861c6.647,8.107,13.817,15.822,20.551,22.578c-13.403,26.043-59.344,109.121-113,135.927
				c0.349-0.937,9.284-23.82,13.73-49.363c7.802-5.23,12.401-7.998,12.401-7.998l-13.076-39.948c0,0,27.612,13.076,24.714,34.87
				C984.647,1465.927,1021.805,1419.18,1039.327,1369.861z"/>
			<path fill="#8A5D3B" d="M959.933,1431.058l13.076,39.948c0,0-4.598,2.768-12.401,7.998
				C963.485,1462.375,964.466,1444.635,959.933,1431.058z"/>
			<path fill="#8A5D3B" d="M959.933,1431.058c4.533,13.577,3.552,31.317,0.676,47.946c-30.25,20.224-108.837,77.171-155.519,151.095
				v-40.798C805.089,1589.301,903.422,1463.748,959.933,1431.058z"/>
			<path fill="#8A5D3B" d="M809.361,93.236c1.112,0.981,0.196,12.771,0.196,12.771S808.38,94.151,809.361,93.236z"/>
			<path fill="#8A5D3B" d="M809.361,93.236c-0.981,0.915,0.196,12.771,0.196,12.771S638.608,17.372,494.051,76.215
				c-44.873,18.263-81.05,24.91-109.644,25.368c7.323-4.293,12.183-6.843,12.183-6.843s20.442-13.076-10.069-8.717
				c-0.479,0.065-0.959,0.153-1.438,0.24l-0.806-5.296c40.885-6.32,73.444-21.467,73.444-21.467
				C660.205-17.28,793.19,79.005,809.361,93.236z"/>
			<path fill="#8A5D3B" d="M805.089,1589.301v40.798c-46.704-73.924-125.291-130.87-155.541-151.095
				c-2.877-16.629-3.836-34.369,0.676-47.946C706.735,1463.748,805.089,1589.301,805.089,1589.301z"/>
			<path fill="#8A5D3B" d="M650.224,1431.058l-13.076,39.948c0,0,4.598,2.768,12.401,7.998c4.446,25.542,13.381,48.425,13.73,49.363
				c-53.634-26.806-99.575-109.883-112.978-135.927c6.734-6.778,13.904-14.493,20.53-22.6
				c17.544,49.319,54.702,96.088,54.702,96.088C622.633,1444.134,650.224,1431.058,650.224,1431.058z"/>
			<path fill="#8A5D3B" d="M637.148,1471.005l13.076-39.948c-4.511,13.577-3.552,31.317-0.676,47.946
				C641.746,1473.773,637.148,1471.005,637.148,1471.005z"/>
			<path fill="#8A5D3B" d="M603.738,1104.154c2.898,33.41-15.975,124.943-66.841,174.349c-6.952,6.756-13.033,14.297-18.285,22.251
				c-1.177-3.945-2.332-7.541-3.509-10.635c-4.184-11.071-14.515,0-14.515,0s0.479,17.718,2.354,40.144
				c-18.372,43.478-19.789,87.719-19.789,87.719c-97.919-41.125-169.445-187.163-205.666-278.043
				c-1.656-25.913-7.018-56.249-18.132-91.446c87.632,196.36,193.287,267.778,193.287,267.778s27.591-66.841,75.537-100.251
				C576.126,1182.611,603.738,1104.154,603.738,1104.154z"/>
			<path fill="#8A5D3B" d="M546.356,1367.115c18.154-8.718,45.767-30.511,45.767-30.511c-4.642,10.984-12.488,22.469-21.292,33.235
				c-1.024-2.833-1.961-5.666-2.833-8.521l-21.641,23.232c0,0,1.373,2.899,3.945,7.889c-15.059,15.103-27.918,25.542-27.918,25.542
				c-11.18-12.88-16.759-55.247-19.44-87.719c4.228-10.069,9.393-20.094,15.67-29.509
				C526.828,1328.388,535.372,1372.389,546.356,1367.115z"/>
			<path fill="#8A5D3B" d="M567.997,1361.318c0.872,2.855,1.809,5.688,2.833,8.521c-6.625,8.107-13.795,15.822-20.53,22.6
				c-2.572-4.991-3.945-7.889-3.945-7.889L567.997,1361.318z"/>
			<path fill="#8A5D3B" d="M515.104,1290.118c1.177,3.095,2.332,6.691,3.509,10.635c-6.277,9.415-11.442,19.44-15.67,29.509
				c-1.874-22.426-2.354-40.144-2.354-40.144S510.919,1279.047,515.104,1290.118z"/>
			<path fill="#8A5D3B" d="M386.521,86.022c30.511-4.359,10.069,8.717,10.069,8.717s-4.86,2.55-12.183,6.843
				c-4.184,0.087-8.216,0.044-12.074-0.153c5.296-5.732,5.47-10.505,5.47-10.505l-3.814-0.262c3.705-2.136,7.432-3.661,11.093-4.402
				C385.562,86.175,386.042,86.087,386.521,86.022z"/>
			<path fill="#8A5D3B" d="M384.277,80.966l0.806,5.296c-3.661,0.741-7.388,2.267-11.093,4.402l-9.981-0.654
				c0,0-3.705,4.882-13.316,9.044c-38.379-6.821-55.051-25.019-55.683-25.716C323.342,85.543,355.814,85.39,384.277,80.966z"/>
			<path fill="#8A5D3B" d="M372.334,101.43c3.857,0.196,7.889,0.24,12.074,0.153c-17.936,10.505-50.67,31.426-63.158,50.736
				c1.111-1.983,11.572-20.137,25.607-36.984C360.434,111.39,368.062,106.094,372.334,101.43z"/>
			<path fill="#8A5D3B" d="M373.99,90.664l3.814,0.262c0,0-0.174,4.773-5.47,10.505c-4.01-0.174-7.824-0.479-11.485-0.915
				C365.142,96.614,369.544,93.214,373.99,90.664z"/>
			<path fill="#8A5D3B" d="M364.008,90.01l9.981,0.654c-4.446,2.55-8.848,5.95-13.142,9.851c-3.552-0.392-6.93-0.872-10.156-1.46
				C360.304,94.892,364.008,90.01,364.008,90.01z"/>
			<path fill="#8A5D3B" d="M372.334,101.43c-4.272,4.664-11.899,9.96-25.477,13.904c4.38-5.23,9.088-10.352,13.991-14.82
				C364.51,100.951,368.324,101.256,372.334,101.43z"/>
			<path fill="#8A5D3B" d="M350.693,99.055c3.225,0.588,6.603,1.068,10.156,1.46c-4.904,4.468-9.611,9.589-13.991,14.82
				c-10.243,2.964-23.908,5.165-42.062,5.71c-71.919,2.179-70.807-36.134-152.185-44.11C71.233,68.979,31.286,153.212,48.72,198.259
				s12.357,87.785,12.357,87.785c15.8-8.696,30.358-21.685,30.358-21.685c15.626,76.452,40.994,110.69,51.934,122.48
				c-5.884,4.904-12.008,10.526-18.198,16.955C101.897,379.408,85.05,297.79,85.05,297.79
				c-17.435,19.614-50.844,23.973-50.844,23.973c21.053-21.074,8.717-53.046-3.879-143.838
				C17.73,87.112,113.382,31.909,223.81,80.574C295.315,112.087,333.018,106.748,350.693,99.055z"/>
			<path fill="#8A5D3B" d="M277.488,1139.939c5.623,88.177-31.906,124.768-32.995,125.814
				c25.106-54.266-41.037-127.035-113.806-269.914c-22.491-44.176-27.678-90.988-24.104-134.597
				c15.866-27.438,27.329-62.984,25.455-107.573c16.411-43.151,34.368-71.418,34.368-71.418
				c-60.87,299.03,54.244,390.345,54.244,390.345c11.921-18.525,6.625-104.544,6.625-104.544l23.406,96.873
				C250.682,1064.925,259.944,1095.981,277.488,1139.939z"/>
			<path fill="#8A5D3B" d="M259.356,1048.493c11.115,35.197,16.476,65.533,18.132,91.446
				c-17.544-43.958-26.806-75.014-26.806-75.014l-23.406-96.873C237.518,996.929,248.284,1023.713,259.356,1048.493z"/>
			<path fill="#8A5D3B" d="M227.275,968.053c13.904,29.247,24.387,56.01,32.08,80.44
				C248.284,1023.713,237.518,996.929,227.275,968.053z"/>
			<path fill="#8A5D3B" d="M148.644,391.895l-19.287,15.582c-1.417-1.003-2.811-2.245-4.184-3.683
				c6.189-6.429,12.313-12.052,18.198-16.955C146.661,390.391,148.644,391.895,148.644,391.895z"/>
			<path fill="#8A5D3B" d="M129.357,407.478l19.287-15.582c0,0-1.983-1.504-5.274-5.056c24.583-20.551,44.699-28.419,45.505-28.724
				c-46.311,63.507-107.159,174.654-64.814,342.661c4.773,18.895,7.279,36.504,7.976,52.893
				c-11.463,30.119-22.142,67.495-25.455,107.573c-30.184,52.217-76.256,75.057-76.256,75.057
				c61.066-70.132,35.524-79.394,22.295-300.359c-7.192-120.148,33.715-191.784,72.551-232.145
				C126.545,405.233,127.94,406.475,129.357,407.478z"/>
			<path fill="#8A5D3B" d="M132.037,753.669c1.874,44.59-9.589,80.135-25.455,107.573
				C109.895,821.164,120.574,783.788,132.037,753.669z"/>
		</g>
		<g>
		</g>
	</g>
	<path id="XMLID_235_" fill="#FFFFFF" d="M436.32,350.088c0,0,7.628,65.018,50.67,86.811
		c43.042,21.794,150.376,59.932,210.853,30.511s61.567-33.78,61.567-33.78l-145.472-63.201L516.411,347L436.32,350.088z"/>
	<path id="XMLID_236_" fill="#FFFFFF" d="M1175.605,350.088c0,0-7.628,65.018-50.67,86.811
		c-43.042,21.794-150.376,59.932-210.853,30.511s-61.567-33.78-61.567-33.78l145.472-63.201L1095.513,347L1175.605,350.088z"/>
	<path fill="#C3996B" d="M916.429,485.935l-98.208-20.706l-0.151-5.446l-12.84,2.707l-12.84-2.707l-0.151,5.446l-98.208,20.706
		c0,0-135.427,122.407-130.915,223.021c4.512,100.614,45.92,155.098,104.763,221.568C709.073,977.06,771.492,918.383,805.229,879
		c33.737,39.382,96.156,98.06,137.352,51.524c58.843-66.471,100.251-120.955,104.763-221.568
		C1051.856,608.342,916.429,485.935,916.429,485.935z"/>
	<path fill="#231F20" d="M808.129,708.995v-0.039c0,0-0.523,0-1.491,0.014c-0.968-0.013-1.491-0.014-1.491-0.014v0.039
		c-27.745,0.555-239.793,9.11-186.768,140.956c56.704,140.995,82.758,294.762,50.574,369.602
		c-31.697,73.708,20.098,174.418,135.014,177.449v0.072c0.898,0,1.78-0.024,2.67-0.036c0.89,0.012,1.773,0.036,2.67,0.036v-0.072
		c114.916-3.032,166.711-103.742,135.014-177.449c-32.184-74.84-6.13-228.606,50.574-369.602
		C1047.922,718.105,835.874,709.55,808.129,708.995z"/>
	<g id="XMLID_98_">
		<g>
			<path fill="#FFFFFF" d="M795.169,578.545c7.008,3.413,17.386,2.99,24.35-0.292c1.673-0.788,0.066-2.021-1.148-1.877
				c-3.929,0.466-7.915,1.218-11.872,1.259c-3.588,0.037-7.095-0.628-10.664-0.771C794.733,576.82,793.99,577.971,795.169,578.545
				L795.169,578.545z"/>
		</g>
	</g>
	<g id="XMLID_106_">
		<g id="XMLID_102_">
			<path fill="#FFFFFF" d="M707.672,757.396c10.221,5.645,11.028,15.19,10.548,26.85c-0.501,11.681-5.013,22.753-8.761,33.802
				c-7.628,22.447-12.292,45.876-13.883,69.5c-0.24,3.465-1.046,7.78-4.424,8.652c-1.024,0.283-2.136,0.131-3.16-0.174
				c-5.013-1.46-8.216-6.298-10.701-10.897c-16.999-31.492-21.663-69.434-12.815-104.108c2.201-8.565,5.492-17.391,12.313-23.036
				C685.333,750.879,698.845,750.64,707.672,757.396z"/>
		</g>
		<g id="XMLID_104_">
			<path fill="none" stroke="#FFFFFF" stroke-width="2.1794" stroke-miterlimit="10" d="M707.672,757.396
				c-8.826-6.756-22.338-6.516-30.882,0.588c-6.821,5.645-10.112,14.471-12.313,23.036c-8.848,34.674-4.184,72.616,12.815,104.108
				c2.484,4.598,5.688,9.437,10.701,10.897c1.024,0.305,2.136,0.458,3.16,0.174c3.378-0.872,4.184-5.187,4.424-8.652
				c1.591-23.624,6.255-47.052,13.883-69.5c3.749-11.049,8.26-22.12,8.761-33.802C718.699,772.586,717.893,763.04,707.672,757.396z"
				/>
		</g>
	</g>
	<g id="XMLID_113_">
		<g>
			<path fill="#FFFFFF" d="M725.793,754.963c-3.095,8.114-2.529,22.538,7.029,26.356c3.207,1.281,7.292,0.941,9.751-1.67
				c3.209-3.408,0.78-8.876-0.414-12.631c-1.273-4.004-2.66-11.694-6.556-14.072c-2.878-1.756-6.853-0.646-8.441,2.318
				c-1.997,3.728-1.351,9.867-0.735,13.874c0.668,4.342,2.438,7.916,5.873,10.689c1.393,1.125,5.106,0.771,5.011-1.58
				c-0.287-7.087-1.216-14.114-2.959-20.99c-0.69-2.723-6.015-2.186-6.145,0.64c-0.31,6.731,1.521,14.195,6.58,18.92
				c1.895,1.77,6.823-0.106,4.889-2.899c-1.372-1.983-2.894-4.317-2.633-6.868c0.22-2.15-3.687-1.953-4.392-0.435
				c-1.979,4.254-1.649,9.27,0.788,13.262c0.994,1.628,4.153,1.795,5.473,0.553c1.612-1.516,2.552-2.975,1.471-5.115
				c-0.68-1.346-2.921-1.88-4.098-0.802c-0.768,0.703-1.482,1.408-2.301,2.053c1.824,0.184,3.649,0.369,5.473,0.553
				c-2.021-3.374-2.718-6.159-2.413-10.069c-1.389,0.276-2.778,0.551-4.167,0.826c1.474,2.117,1.219,4.833,0.999,7.249
				c2.038-0.212,4.077-0.424,6.115-0.636c-3.016-5.609-5.53-9.993-5.527-16.593c-2.048,0.213-4.097,0.426-6.145,0.64
				c1.963,6.496,3.047,12.924,3.122,19.711c1.67-0.527,3.34-1.053,5.011-1.58c-3.838-3.277-4.22-8.443-4.047-13.168
				c0.034-0.94,0.092-1.886,0.181-2.823c0.043-0.46,0.087-0.919,0.13-1.379c0.769-1.206,0.66-1.784-0.328-1.732
				c-0.726-1.139,0.367,2.098,0.484,2.366c0.602,1.373,1.194,2.749,1.752,4.141c0.891,2.225,1.7,4.48,2.473,6.748
				c1.029,3.022,2.019,3.101-1.481,4.338c-3.089,1.091-2.731,1.129-4.072-1.231c-3.129-5.509-3.766-12.19-2.335-18.295
				C729.628,753.842,726.366,753.46,725.793,754.963L725.793,754.963z"/>
		</g>
	</g>
	<g id="XMLID_121_">
		<g id="XMLID_117_">
			<path fill="#FFFFFF" d="M764.531,759.793c4.577,4.337,6.08,11.594,3.618,17.391c-0.37,0.894-0.85,1.743-1.526,2.419
				c-1.373,1.373-3.487,1.809-5.427,1.569c-4.577-0.588-8.151-4.642-9.48-9.066c-1.329-4.446-0.806-9.197-0.022-13.752
				C754.877,755.238,761.306,756.72,764.531,759.793z"/>
		</g>
		<g id="XMLID_119_">
			<path fill="none" stroke="#FFFFFF" stroke-width="2.1794" stroke-miterlimit="10" d="M751.695,758.355
				c-0.785,4.555-1.308,9.306,0.022,13.752c1.329,4.424,4.904,8.478,9.48,9.066c1.94,0.24,4.054-0.196,5.427-1.569
				c0.676-0.676,1.155-1.526,1.526-2.419c2.463-5.797,0.959-13.054-3.618-17.391C761.306,756.72,754.877,755.238,751.695,758.355z"
				/>
		</g>
	</g>
	<g id="XMLID_130_">
		<g id="XMLID_126_">
			<path fill="#FFFFFF" d="M799.924,767.068c0.61,4.511-2.136,9.262-6.342,10.962c-4.228,1.722-9.524,0.262-12.226-3.4
				c-3.574-4.773-3.618-7.41-1.678-13.033c3.051-3.618,8.783-2.593,13.316-1.242c1.809,0.545,3.683,1.111,4.991,2.441
				C799.118,763.93,799.728,765.478,799.924,767.068z"/>
		</g>
		<g id="XMLID_128_">
			<path fill="none" stroke="#FFFFFF" stroke-width="2.1794" stroke-miterlimit="10" d="M779.678,761.598
				c-1.94,5.623-1.896,8.26,1.678,13.033c2.702,3.661,7.998,5.122,12.226,3.4c4.206-1.7,6.952-6.451,6.342-10.962
				c-0.196-1.591-0.806-3.138-1.94-4.272c-1.308-1.329-3.182-1.896-4.991-2.441C788.461,759.005,782.729,757.981,779.678,761.598z"
				/>
		</g>
	</g>
	<g id="XMLID_138_">
		<g id="XMLID_134_">
			<path fill="#FFFFFF" d="M899.601,757.396c-10.221,5.645-11.028,15.19-10.548,26.85c0.501,11.681,5.013,22.753,8.761,33.802
				c7.628,22.447,12.292,45.876,13.883,69.5c0.24,3.465,1.046,7.78,4.424,8.652c1.024,0.283,2.136,0.131,3.16-0.174
				c5.013-1.46,8.216-6.298,10.701-10.897c16.999-31.492,21.663-69.434,12.815-104.108c-2.201-8.565-5.492-17.391-12.313-23.036
				C921.939,750.879,908.427,750.64,899.601,757.396z"/>
		</g>
		<g id="XMLID_136_">
			<path fill="none" stroke="#FFFFFF" stroke-width="2.1794" stroke-miterlimit="10" d="M899.601,757.396
				c8.826-6.756,22.338-6.516,30.881,0.588c6.821,5.645,10.112,14.471,12.313,23.036c8.848,34.674,4.184,72.616-12.815,104.108
				c-2.484,4.598-5.688,9.437-10.701,10.897c-1.024,0.305-2.136,0.458-3.16,0.174c-3.378-0.872-4.184-5.187-4.424-8.652
				c-1.591-23.624-6.255-47.052-13.883-69.5c-3.748-11.049-8.26-22.12-8.761-33.802C888.573,772.586,889.38,763.04,899.601,757.396z
				"/>
		</g>
	</g>
	<g id="XMLID_145_">
		<g>
			<path fill="#FFFFFF" d="M878.065,755.634c1.361,5.802,0.81,11.861-1.773,17.265c-0.313,0.654-1.197,2.908-1.997,3.193
				c-1.758-0.621-3.515-1.242-5.273-1.863c0.315-0.843,0.608-1.694,0.878-2.552c0.868-2.554,1.747-5.096,2.75-7.602
				c0.364-0.909,3.214-5.91,2.845-6.603c-1.011-1.901-0.88,2.453-0.873,2.517c0.105,0.93,0.162,1.868,0.209,2.802
				c0.249,4.927,0.02,10.437-4.01,13.878c1.67,0.527,3.34,1.053,5.011,1.58c0.074-6.785,1.159-13.216,3.122-19.711
				c-2.048-0.213-4.097-0.426-6.145-0.64c0.004,6.604-2.51,10.982-5.527,16.593c2.038,0.212,4.077,0.424,6.115,0.636
				c-0.22-2.416-0.475-5.132,0.999-7.249c-1.389-0.275-2.778-0.551-4.167-0.826c0.306,3.935-0.355,6.632-2.413,10.069
				c1.824-0.184,3.649-0.369,5.473-0.553c-0.819-0.646-1.533-1.35-2.301-2.053c-1.177-1.078-3.418-0.544-4.098,0.802
				c-1.081,2.14-0.141,3.599,1.471,5.115c1.32,1.242,4.479,1.075,5.473-0.553c2.439-3.995,2.768-9.005,0.788-13.262
				c-0.706-1.516-4.612-1.714-4.392,0.435c0.261,2.551-1.261,4.886-2.633,6.868c-1.924,2.779,2.985,4.678,4.889,2.899
				c5.059-4.725,6.89-12.189,6.58-18.92c-0.13-2.817-5.453-3.368-6.145-0.64c-1.744,6.878-2.672,13.902-2.959,20.99
				c-0.095,2.349,3.61,2.71,5.011,1.58c3.435-2.773,5.201-6.347,5.873-10.689c0.604-3.902,1.259-10.219-0.735-13.874
				c-1.536-2.815-5.239-4.023-8.11-2.516c-4.148,2.176-5.618,10.278-6.887,14.27c-1.174,3.693-3.523,8.963-0.629,12.421
				c2.357,2.817,6.738,3.169,9.966,1.88c9.555-3.816,10.119-18.256,7.029-26.356C880.909,753.465,877.644,753.838,878.065,755.634
				L878.065,755.634z"/>
		</g>
	</g>
	<g id="XMLID_153_">
		<g id="XMLID_149_">
			<path fill="#FFFFFF" d="M842.742,759.793c-4.577,4.337-6.08,11.594-3.618,17.391c0.371,0.894,0.85,1.743,1.526,2.419
				c1.373,1.373,3.487,1.809,5.427,1.569c4.577-0.588,8.151-4.642,9.48-9.066c1.329-4.446,0.806-9.197,0.022-13.752
				C852.396,755.238,845.967,756.72,842.742,759.793z"/>
		</g>
		<g id="XMLID_151_">
			<path fill="none" stroke="#FFFFFF" stroke-width="2.1794" stroke-miterlimit="10" d="M855.578,758.355
				c0.785,4.555,1.308,9.306-0.022,13.752c-1.329,4.424-4.904,8.478-9.48,9.066c-1.94,0.24-4.054-0.196-5.427-1.569
				c-0.676-0.676-1.155-1.526-1.526-2.419c-2.463-5.797-0.959-13.054,3.618-17.391C845.967,756.72,852.396,755.238,855.578,758.355z
				"/>
		</g>
	</g>
	<g id="XMLID_161_">
		<g id="XMLID_157_">
			<path fill="#FFFFFF" d="M807.349,767.068c-0.61,4.511,2.136,9.262,6.342,10.962c4.228,1.722,9.524,0.262,12.226-3.4
				c3.574-4.773,3.618-7.41,1.678-13.033c-3.051-3.618-8.783-2.593-13.316-1.242c-1.809,0.545-3.683,1.111-4.991,2.441
				C808.155,763.93,807.545,765.478,807.349,767.068z"/>
		</g>
		<g id="XMLID_159_">
			<path fill="none" stroke="#FFFFFF" stroke-width="2.1794" stroke-miterlimit="10" d="M827.595,761.598
				c1.94,5.623,1.896,8.26-1.678,13.033c-2.702,3.661-7.998,5.122-12.226,3.4c-4.206-1.7-6.952-6.451-6.342-10.962
				c0.196-1.591,0.806-3.138,1.94-4.272c1.308-1.329,3.182-1.896,4.991-2.441C818.812,759.005,824.544,757.981,827.595,761.598z"/>
		</g>
	</g>
	<g id="XMLID_169_">
		<g id="XMLID_165_">
			<path fill="#FFFFFF" d="M924.365,1225.849c0.479,25.738-4.075,51.564-13.359,75.58c-2.768,7.192-7.475,15.299-15.168,15.648
				c-2.877,0.109-5.688-0.959-8.216-2.354c-8.805-4.838-14.558-9.698-15.844-19.658c-0.567-6.604,2.376-13.076,6.429-18.307
				s9.197-9.524,13.904-14.166c11.093-10.962,19.898-24.213,25.738-38.684c0.61-1.526,1.482-3.291,3.116-3.465
				C923.363,1220.226,924.322,1223.452,924.365,1225.849z"/>
		</g>
		<g id="XMLID_167_">
			<path fill="none" stroke="#FFFFFF" stroke-width="2.1794" stroke-miterlimit="10" d="M871.778,1295.066
				c-0.567-6.604,2.376-13.076,6.429-18.307s9.197-9.524,13.904-14.166c11.093-10.962,19.898-24.213,25.738-38.684
				c0.61-1.526,1.482-3.291,3.116-3.465c2.397-0.218,3.356,3.008,3.4,5.405c0.479,25.738-4.075,51.564-13.359,75.58
				c-2.768,7.192-7.475,15.299-15.168,15.648c-2.877,0.109-5.688-0.959-8.216-2.354
				C878.817,1309.885,873.063,1305.025,871.778,1295.066z"/>
		</g>
	</g>
	<g id="XMLID_177_">
		<g id="XMLID_173_">
			<path fill="#FFFFFF" d="M869.032,1304.829c1.678,4.664-0.567,9.829-3.334,13.926c-0.85,1.286-1.831,2.572-3.204,3.247
				c-1.373,0.654-2.942,0.654-4.446,0.458c-5.688-0.741-11.224-4.337-13.163-9.742c-1.94-5.405,0.654-12.357,6.059-14.253
				c1.613-0.567,3.334-0.697,5.034-0.915c1.809-0.218,3.64-0.567,5.448-0.327C865.675,1297.812,869.424,1300.557,869.032,1304.829z"
				/>
		</g>
		<g id="XMLID_175_">
			<path fill="none" stroke="#FFFFFF" stroke-width="2.1794" stroke-miterlimit="10" d="M869.032,1304.829
				c0.392-4.272-3.356-7.018-7.606-7.606c-1.809-0.24-3.64,0.109-5.448,0.327c-1.7,0.218-3.422,0.349-5.034,0.915
				c-5.405,1.896-7.998,8.848-6.059,14.253c1.94,5.405,7.475,9.001,13.163,9.742c1.504,0.196,3.073,0.196,4.446-0.458
				c1.373-0.676,2.354-1.961,3.204-3.247C868.465,1314.658,870.71,1309.493,869.032,1304.829z"/>
		</g>
	</g>
	<g id="XMLID_185_">
		<g id="XMLID_181_">
			<path fill="#FFFFFF" d="M839.937,1315.835l-0.065,0.022c-0.763,2.179-2.811,3.879-5.1,4.184s-4.729-0.763-6.037-2.681
				c-1.809-2.659-1.351-6.189-0.806-9.371c0.153-0.915,0.349-1.896,1.024-2.528c0.588-0.545,1.417-0.719,2.201-0.872
				c2.55-0.501,5.557-0.872,7.453,0.937C841.179,1308.033,839.523,1312.239,839.937,1315.835z"/>
		</g>
		<g id="XMLID_183_">
			<path fill="none" stroke="#FFFFFF" stroke-width="2.1794" stroke-miterlimit="10" d="M840.09,1316.794
				c-0.065-0.305-0.131-0.632-0.153-0.959c-0.414-3.596,1.242-7.802-1.329-10.308c-1.896-1.809-4.904-1.438-7.453-0.937
				c-0.785,0.153-1.613,0.327-2.201,0.872c-0.676,0.632-0.872,1.613-1.024,2.528c-0.545,3.182-1.003,6.712,0.806,9.371
				c1.308,1.918,3.749,2.986,6.037,2.681s4.337-2.005,5.1-4.184"/>
		</g>
	</g>
	<g id="XMLID_198_">
		<g id="XMLID_190_">
			<path fill="#FFFFFF" d="M820.04,1309.863c0.763,2.201,1.068,4.533,0.37,6.712c-0.937,3.029-4.49,5.339-7.344,4.01
				c-2.332-1.09-3.225-3.966-3.269-6.538c-0.065-2.746,0.763-5.775,3.095-7.214c1.765-1.09,5.013-0.37,6.451,1.242l0.022,0.022
				c0.262,0.567,0.479,1.133,0.676,1.722C820.04,1309.842,820.061,1309.842,820.04,1309.863z"/>
		</g>
		<g id="XMLID_192_">
			<path fill="none" stroke="#FFFFFF" stroke-width="2.1794" stroke-miterlimit="10" d="M819.342,1308.076
				c-0.087-0.218-0.174-0.436-0.283-0.654"/>
			<path fill="none" stroke="#FFFFFF" stroke-width="2.1794" stroke-miterlimit="10" d="M820.04,1309.82
				c-0.196-0.588-0.414-1.155-0.676-1.722"/>
			<path fill="none" stroke="#FFFFFF" stroke-width="2.1794" stroke-miterlimit="10" d="M820.04,1309.863
				c0.022-0.022,0-0.022,0-0.044c0.022-0.632-0.24-1.22-0.676-1.722l-0.022-0.022c-1.438-1.613-4.686-2.332-6.451-1.242
				c-2.332,1.438-3.16,4.468-3.095,7.214c0.044,2.572,0.937,5.448,3.269,6.538c2.855,1.329,6.407-0.981,7.344-4.01
				C821.107,1314.396,820.802,1312.065,820.04,1309.863"/>
		</g>
	</g>
	<g id="XMLID_208_">
		<g id="XMLID_204_">
			<path fill="#FFFFFF" d="M687.238,1225.849c-0.479,25.738,4.075,51.564,13.359,75.58c2.768,7.192,7.475,15.299,15.168,15.648
				c2.877,0.109,5.688-0.959,8.216-2.354c8.805-4.838,14.558-9.698,15.844-19.658c0.567-6.604-2.375-13.076-6.429-18.307
				c-4.054-5.23-9.197-9.524-13.904-14.166c-11.093-10.962-19.898-24.213-25.738-38.684c-0.61-1.526-1.482-3.291-3.117-3.465
				C688.241,1220.226,687.282,1223.452,687.238,1225.849z"/>
		</g>
		<g id="XMLID_206_">
			<path fill="none" stroke="#FFFFFF" stroke-width="2.1794" stroke-miterlimit="10" d="M739.826,1295.066
				c0.567-6.604-2.375-13.076-6.429-18.307c-4.054-5.23-9.197-9.524-13.904-14.166c-11.093-10.962-19.898-24.213-25.738-38.684
				c-0.61-1.526-1.482-3.291-3.117-3.465c-2.397-0.218-3.356,3.008-3.4,5.405c-0.479,25.738,4.075,51.564,13.359,75.58
				c2.768,7.192,7.475,15.299,15.168,15.648c2.877,0.109,5.688-0.959,8.216-2.354
				C732.787,1309.885,738.54,1305.025,739.826,1295.066z"/>
		</g>
	</g>
	<g id="XMLID_239_">
		<g id="XMLID_214_">
			<path fill="#FFFFFF" d="M742.572,1304.829c-1.678,4.664,0.567,9.829,3.334,13.926c0.85,1.286,1.831,2.572,3.204,3.247
				c1.373,0.654,2.942,0.654,4.446,0.458c5.688-0.741,11.224-4.337,13.163-9.742s-0.654-12.357-6.059-14.253
				c-1.613-0.567-3.334-0.697-5.034-0.915c-1.809-0.218-3.64-0.567-5.448-0.327C745.928,1297.812,742.18,1300.557,742.572,1304.829z
				"/>
		</g>
		<g id="XMLID_237_">
			<path fill="none" stroke="#FFFFFF" stroke-width="2.1794" stroke-miterlimit="10" d="M742.572,1304.829
				c-0.392-4.272,3.356-7.018,7.606-7.606c1.809-0.24,3.64,0.109,5.448,0.327c1.7,0.218,3.422,0.349,5.034,0.915
				c5.405,1.896,7.998,8.848,6.059,14.253s-7.475,9.001-13.163,9.742c-1.504,0.196-3.073,0.196-4.446-0.458
				c-1.373-0.676-2.354-1.961-3.204-3.247C743.139,1314.658,740.894,1309.493,742.572,1304.829z"/>
		</g>
	</g>
	<g id="XMLID_247_">
		<g id="XMLID_243_">
			<path fill="#FFFFFF" d="M771.667,1315.835l0.065,0.022c0.763,2.179,2.811,3.879,5.1,4.184s4.729-0.763,6.037-2.681
				c1.809-2.659,1.351-6.189,0.806-9.371c-0.153-0.915-0.349-1.896-1.024-2.528c-0.588-0.545-1.417-0.719-2.201-0.872
				c-2.55-0.501-5.557-0.872-7.453,0.937C770.424,1308.033,772.081,1312.239,771.667,1315.835z"/>
		</g>
		<g id="XMLID_245_">
			<path fill="none" stroke="#FFFFFF" stroke-width="2.1794" stroke-miterlimit="10" d="M771.514,1316.794
				c0.065-0.305,0.131-0.632,0.153-0.959c0.414-3.596-1.242-7.802,1.329-10.308c1.896-1.809,4.904-1.438,7.453-0.937
				c0.785,0.153,1.613,0.327,2.201,0.872c0.676,0.632,0.872,1.613,1.024,2.528c0.545,3.182,1.003,6.712-0.806,9.371
				c-1.308,1.918-3.748,2.986-6.037,2.681s-4.337-2.005-5.1-4.184"/>
		</g>
	</g>
	<g id="XMLID_257_">
		<g id="XMLID_251_">
			<path fill="#FFFFFF" d="M791.564,1309.863c-0.763,2.201-1.068,4.533-0.37,6.712c0.937,3.029,4.49,5.339,7.344,4.01
				c2.332-1.09,3.225-3.966,3.269-6.538c0.065-2.746-0.763-5.775-3.095-7.214c-1.765-1.09-5.013-0.37-6.451,1.242l-0.022,0.022
				c-0.262,0.567-0.479,1.133-0.676,1.722C791.564,1309.842,791.542,1309.842,791.564,1309.863z"/>
		</g>
		<g id="XMLID_253_">
			<path fill="none" stroke="#FFFFFF" stroke-width="2.1794" stroke-miterlimit="10" d="M792.262,1308.076
				c0.087-0.218,0.174-0.436,0.283-0.654"/>
			<path fill="none" stroke="#FFFFFF" stroke-width="2.1794" stroke-miterlimit="10" d="M791.564,1309.82
				c0.196-0.588,0.414-1.155,0.676-1.722"/>
			<path fill="none" stroke="#FFFFFF" stroke-width="2.1794" stroke-miterlimit="10" d="M791.564,1309.863
				c-0.022-0.022,0-0.022,0-0.044c-0.022-0.632,0.24-1.22,0.676-1.722l0.022-0.022c1.438-1.613,4.686-2.332,6.451-1.242
				c2.332,1.438,3.16,4.468,3.095,7.214c-0.044,2.572-0.937,5.448-3.269,6.538c-2.855,1.329-6.407-0.981-7.344-4.01
				C790.496,1314.396,790.801,1312.065,791.564,1309.863"/>
		</g>
	</g>
	<g id="XMLID_278_">
		<g>
			<path d="M891.742,1170.66c-0.41,0.203-0.82,0.407-1.23,0.61c1.751,1.333,3.503,2.667,5.254,4
				c-23.999-77.941-13.62-164.767,26.081-235.802c11.242-20.114,24.793-38.807,40.482-55.684c4.77-5.131-2.918-12.855-7.705-7.705
				c-57.429,61.776-87.083,147.474-82.062,231.524c1.429,23.923,5.644,47.658,12.697,70.563c0.677,2.2,2.833,4.123,5.254,4
				c3.663-0.186,6.288-1.244,8.935-3.802C904.499,1173.484,896.789,1165.783,891.742,1170.66L891.742,1170.66z"/>
		</g>
	</g>
	<path fill="#E61E25" d="M865.836,1069.138c-30.148,0-59.845,11.442-60.751,47.401c-0.16,6.354-0.263,15.709-0.325,26.792
		c-0.098-11.083-0.224-20.439-0.384-26.792c-0.905-35.959-30.603-47.401-60.751-47.401c-30.148,0-28.15,99.706-28.15,154.19
		s89.61,61.005,89.61,61.005s88.9-6.521,88.9-61.005S895.984,1069.138,865.836,1069.138z"/>
	<g id="XMLID_281_">
		<path fill="#FAAF40" d="M1037.335,369.413c-29.579,6.862-57.448,16.489-80.685,29.881c-2.666,1.536-5.254,3.002-7.804,4.433
			c-1.129,4.522-1.737,9.251-1.737,14.123c0,32.097,26.02,58.116,58.116,58.116c32.097,0,58.116-26.02,58.116-58.116
			C1063.341,397.627,1053.006,379.823,1037.335,369.413z"/>
		<path fill="#231F20" d="M1037.23,369.893c-3.779,0.978-7.544,1.988-11.285,3.054c-3.812,1.095-7.607,2.239-11.384,3.438
			c-1.884,0.612-3.779,1.19-5.65,1.838c-1.875,0.635-3.755,1.256-5.615,1.933c-1.866,0.659-3.729,1.326-5.576,2.034
			c-1.856,0.684-3.698,1.401-5.532,2.138c-1.843,0.714-3.662,1.485-5.484,2.248c-1.829,0.745-3.622,1.575-5.431,2.363
			c-1.806,0.797-3.581,1.658-5.372,2.483l-5.301,2.618c-1.74,0.923-3.506,1.795-5.223,2.758c-1.721,0.953-3.453,1.886-5.139,2.897
			l-10.251,6.038l1.099-1.449c-1.14,4.958-1.631,10.046-1.367,15.115c0.192,5.071,1.159,10.049,2.695,14.849
			c1.614,4.767,3.778,9.347,6.592,13.504c0.667,1.062,1.453,2.044,2.184,3.06c0.797,0.967,1.552,1.968,2.407,2.884
			c1.644,1.889,3.453,3.627,5.343,5.26c3.785,3.268,8.026,5.972,12.524,8.097c4.531,2.052,9.307,3.549,14.204,4.295
			c4.876,0.813,9.892,0.845,14.786,0.293c4.864-0.599,9.677-1.823,14.195-3.687c4.534-1.842,8.804-4.291,12.703-7.229
			c1.937-1.485,3.807-3.061,5.549-4.773c0.853-0.873,1.721-1.734,2.52-2.658l1.218-1.37l1.152-1.426
			c1.505-1.925,2.92-3.929,4.141-6.052c0.662-1.032,1.206-2.131,1.804-3.203c0.519-1.109,1.105-2.193,1.554-3.336
			c1-2.246,1.764-4.589,2.443-6.957c0.307-1.193,0.628-2.385,0.848-3.6c0.285-1.203,0.452-2.428,0.658-3.65
			c0.311-2.448,0.567-4.948,0.528-7.413l0.002-1.986l-0.108-1.815l-0.115-1.816l-0.214-1.862c-0.577-4.973-1.893-9.869-3.772-14.578
			c-1.916-4.696-4.494-9.153-7.59-13.276C1044.889,376.899,1041.288,373.168,1037.23,369.893z M1037.576,369.05
			c4.685,2.586,9.042,5.888,12.844,9.792c3.824,3.886,7.098,8.365,9.708,13.243c2.599,4.886,4.446,10.195,5.593,15.666l0.416,2.059
			c0.113,0.701,0.189,1.422,0.283,2.134l0.257,2.138l0.129,1.982c0.223,2.826,0.129,5.624-0.045,8.443
			c-0.425,5.626-1.705,11.203-3.711,16.513c-1.963,5.331-4.76,10.361-8.185,14.911c-3.393,4.586-7.526,8.597-12.061,12.054
			c-4.601,3.369-9.629,6.178-14.986,8.128c-1.321,0.532-2.696,0.916-4.045,1.364c-1.38,0.349-2.741,0.766-4.139,1.028
			c-2.776,0.635-5.583,0.982-8.425,1.234c-5.646,0.388-11.308,0.117-16.852-0.983c-5.543-1.046-10.903-2.93-15.928-5.425
			c-5.01-2.532-9.686-5.702-13.821-9.469c-2.065-1.882-4.028-3.879-5.805-6.031c-0.922-1.048-1.738-2.182-2.592-3.284
			c-0.787-1.151-1.624-2.268-2.337-3.466c-2.988-4.705-5.284-9.832-6.871-15.154c-1.522-5.331-2.397-10.877-2.425-16.397
			c-0.103-5.514,0.616-11.049,2.026-16.364l0.263-0.992l0.837-0.457l5.229-2.857l5.26-2.84c1.76-0.965,3.561-1.849,5.351-2.752
			c1.785-0.912,3.615-1.732,5.419-2.601l5.481-2.451c1.847-0.768,3.679-1.571,5.537-2.307c1.862-0.728,3.706-1.497,5.584-2.18
			c1.87-0.7,3.737-1.409,5.625-2.058c1.879-0.673,3.765-1.325,5.661-1.943c1.889-0.642,3.79-1.242,5.694-1.833
			c1.898-0.61,3.813-1.162,5.723-1.729c1.906-0.579,3.833-1.088,5.749-1.63c1.915-0.546,3.852-1.012,5.776-1.521l5.797-1.427
			c3.877-0.92,7.759-1.779,11.644-2.6l0.168-0.035L1037.576,369.05z"/>
	</g>
	<g id="XMLID_287_">
		<path fill="#FAAF40" d="M572.777,369.413c29.579,6.862,57.448,16.489,80.685,29.881c2.666,1.536,5.254,3.002,7.804,4.433
			c1.129,4.522,1.737,9.251,1.737,14.123c0,32.097-26.02,58.116-58.116,58.116s-58.116-26.02-58.116-58.116
			C546.77,397.627,557.105,379.823,572.777,369.413z"/>
		<path fill="#231F20" d="M572.679,368.959l6.109,0.937l5.901,1.056c1.959,0.386,3.919,0.773,5.873,1.191
			c1.949,0.437,3.917,0.815,5.855,1.303c1.941,0.479,3.894,0.925,5.828,1.443c1.936,0.509,3.884,0.986,5.806,1.554
			c1.928,0.549,3.854,1.107,5.769,1.708c1.922,0.576,3.835,1.188,5.743,1.821c1.919,0.601,3.805,1.297,5.699,1.976
			c1.9,0.662,3.769,1.412,5.655,2.12c1.883,0.717,3.741,1.502,5.615,2.252c1.861,0.781,3.704,1.608,5.546,2.439
			c1.824,0.872,3.673,1.693,5.479,2.609c1.811,0.907,3.633,1.793,5.416,2.763c1.811,0.959,3.54,1.87,5.28,2.845l5.217,2.877
			l1.616,0.891l0.506,1.905c1.462,5.503,2.082,11.258,1.907,16.935c-0.156,5.687-1.177,11.397-2.918,16.804
			c-1.783,5.411-4.314,10.561-7.499,15.245c-0.764,1.193-1.65,2.301-2.485,3.441c-0.902,1.09-1.765,2.21-2.732,3.241
			c-1.862,2.123-3.902,4.083-6.038,5.918c-4.276,3.674-9.063,6.717-14.144,9.103c-5.096,2.348-10.486,4.066-16.013,4.944
			c-5.525,0.939-11.135,1.027-16.673,0.461c-2.782-0.337-5.527-0.766-8.223-1.477c-1.359-0.3-2.678-0.753-4.014-1.135
			c-1.305-0.479-2.634-0.891-3.907-1.45c-5.156-2.071-9.979-4.9-14.364-8.263c-2.169-1.714-4.245-3.54-6.177-5.508
			c-1.903-1.994-3.744-4.052-5.361-6.281c-1.631-2.215-3.15-4.515-4.452-6.935c-0.688-1.189-1.251-2.444-1.863-3.671
			c-0.533-1.265-1.126-2.502-1.578-3.798c-1.967-5.118-3.161-10.505-3.662-15.931c-0.2-2.719-0.327-5.436-0.143-8.162l0.101-1.983
			l0.225-2.048c0.082-0.682,0.147-1.369,0.245-2.044l0.36-2.003c0.983-5.333,2.699-10.518,5.074-15.364
			c4.784-9.688,12.283-17.904,21.279-23.634L572.679,368.959z M572.857,369.897c-8.54,6.024-15.343,14.329-19.582,23.737
			c-2.104,4.748-3.551,9.769-4.292,14.879l-0.27,1.917c-0.067,0.637-0.101,1.271-0.154,1.906l-0.141,1.906l-0.025,1.985
			c-0.078,2.565,0.145,5.147,0.429,7.695c0.669,5.094,1.982,10.091,3.999,14.789c0.464,1.19,1.066,2.321,1.602,3.477
			c0.615,1.118,1.178,2.263,1.861,3.341c1.279,2.204,2.757,4.285,4.33,6.281c1.559,2.01,3.322,3.849,5.13,5.625
			c1.837,1.751,3.797,3.362,5.832,4.866c4.116,2.944,8.591,5.374,13.326,7.094c4.711,1.766,9.684,2.821,14.66,3.252
			c5.001,0.374,10.071,0.159,14.965-0.815c4.913-0.914,9.659-2.578,14.119-4.776c4.427-2.272,8.557-5.103,12.201-8.463
			c1.819-1.679,3.551-3.455,5.11-5.373c0.81-0.933,1.518-1.948,2.267-2.927c0.682-1.028,1.418-2.018,2.035-3.086
			c2.616-4.178,4.546-8.735,5.964-13.413c1.317-4.724,2.139-9.538,2.202-14.442c0.192-4.907-0.398-9.775-1.485-14.544l2.122,2.796
			l-10.243-6.014c-1.663-1.006-3.374-1.935-5.074-2.886c-1.695-0.959-3.442-1.83-5.162-2.75l-5.236-2.631
			c-1.764-0.843-3.513-1.723-5.294-2.539c-1.785-0.807-3.552-1.657-5.359-2.422l-5.41-2.33c-1.806-0.777-3.621-1.535-5.451-2.26
			c-1.821-0.749-3.659-1.458-5.501-2.159c-1.836-0.72-3.682-1.415-5.531-2.108c-1.844-0.71-3.712-1.35-5.572-2.025l-5.599-1.978
			l-5.63-1.914L572.857,369.897z"/>
	</g>
	<circle id="XMLID_286_" fill="#231F20" cx="1005.225" cy="422.69" r="17.522"/>
	<circle id="XMLID_292_" fill="#231F20" cx="604.886" cy="422.69" r="17.522"/>
	<path id="XMLID_49_" fill="#231F20" d="M188.901,358.085c0,0-149.516,56.895-136.284,277.861s38.769,230.228-22.294,300.355
		c0,0,136.085-67.481,93.745-235.521S142.591,421.596,188.901,358.085z"/>
	<path id="XMLID_50_" fill="#231F20" d="M166.408,682.257c0,0-108.498,170.686-35.725,313.586s138.931,215.673,113.791,269.923
		c0,0,86.005-80.712-17.201-297.709c0,0,5.293,86.005-6.616,104.529C220.657,1072.586,105.543,981.288,166.408,682.257z"/>
	<path id="XMLID_51_" fill="#231F20" d="M250.681,1064.918c0,0,87.174,292.034,232.465,353.056c0,0,2.906-90.08,53.758-139.479
		s69.74-140.932,66.834-174.349c0,0-27.605,78.457-75.551,111.874s-75.551,100.251-75.551,100.251s-133.991-90.566-225.362-348.214
		L250.681,1064.918z"/>
	<path id="XMLID_54_" fill="#231F20" d="M500.581,1290.118c0,0,2.906,106.062,21.794,127.856c0,0,53.758-43.587,69.74-81.363
		c0,0-27.605,21.794-45.767,30.511c-12.544,6.021-21.891-52.282-31.238-77.004C510.924,1279.047,500.581,1290.118,500.581,1290.118z
		"/>
	<path id="XMLID_55_" fill="#231F20" d="M546.347,1384.557c0,0,53.031,111.874,116.959,143.838c0,0-24.699-62.475-13.076-97.345
		c0,0-27.605,13.076-24.699,34.87c0,0-41.56-52.305-57.542-104.609L546.347,1384.557z"/>
	<path id="XMLID_56_" fill="#231F20" d="M637.154,1471.005c0,0,109.208,66.107,167.931,159.093v-40.808
		c0,0-98.342-125.549-154.854-158.24L637.154,1471.005z"/>
	<path id="XMLID_57_" fill="#231F20" d="M587.755,819.377c0,0-89.96-172.896,136.633-354.509l28.998-30.511
		C742.724,428.151,457.224,603.051,587.755,819.377z"/>
	<path id="XMLID_65_" fill="none" stroke="#231F20" stroke-width="15.2555" stroke-miterlimit="10" d="M753.387,434.356
		c0,0-96.618,70.446-196.142,30.138s-110.421-59.922-118.412-114.406"/>
	<path id="XMLID_66_" fill="#231F20" d="M546.347,600.352c0,0-57.39,51.94-69.013,120.227c0,0,28.964-26.157,61.022-13.076
		c0,0-71.919,91.533-26.516,200.501c0,0-69.087-95.316-11.26-171.443c0,0-46.493,24.699-61.749,53.758
		C438.832,790.319,462.253,672.393,546.347,600.352z"/>
	<path id="XMLID_67_" fill="#231F20" d="M515.11,974.011c0,0-42.134,127.23-88.627,169.364c0,0-174.123-173.991-89.128-364.322
		c0,0-33.35,30.153-59.286,40.323c0,0,11.84-197.595,189.095-293.487c0,0-146.839,144.812-146.021,228.288
		c0,0,41.411-30.693,66.111-40.864c-13.584,26.771-84.393,288.13,37.776,369.938C425.03,1083.253,471.523,1057.453,515.11,974.011z"
		/>
	<path id="XMLID_68_" fill="#231F20" d="M364.008,90.018c0,0-29.785,39.228-140.205-9.444s-206.073,6.538-193.48,97.345
		s24.943,122.771,3.876,143.838c0,0,33.417-4.359,50.852-23.973c0,0,18.888,91.533,44.314,109.694l19.281-15.587
		c0,0-36.868-28-57.208-127.524c0,0-14.555,12.977-30.368,21.681c0,0,5.094-42.748-12.341-87.789S71.237,68.974,152.61,76.941
		s80.273,46.277,152.192,44.097s73.009-30.113,73.009-30.113L364.008,90.018z"/>
	<path id="XMLID_69_" fill="#231F20" d="M396.59,94.739c0,0-58.015,30.511-75.446,57.753c0,0,34.873-62.112,65.384-66.47
		C417.039,81.663,396.59,94.739,396.59,94.739z"/>
	<path id="XMLID_70_" fill="#231F20" d="M275.38,193.9c0,0-33.417,42.134-34.87,74.825c0,0-13.803-23.247-7.991-37.412
		c0,0-23.973,3.995-35.596-9.807c0,0,9.444,31.964-17.435,22.52c0,0-4.359,36.759,16.708,59.424c0,0-50.125,13.947-71.192-150.957
		c0,0,27.605,65.381,38.502,67.56c10.897,2.179-4.359-23.463,9.444-38.61s25.426,21.175,49.399,20.449S275.38,193.9,275.38,193.9z"
		/>
	<path fill="#231F20" d="M1152.449,59.506C949.4-17.489,823.936,79.499,809.353,93.241C793.183,79.008,660.197-17.272,457.72,59.506
		c0,0-93.712,43.587-162.725,13.803c0,0,54.484,61.749,199.048,2.906c144.564-58.843,315.52,29.785,315.52,29.785
		s161.999-88.627,306.563-29.785c144.564,58.843,199.048-2.906,199.048-2.906C1246.162,103.094,1152.449,59.506,1152.449,59.506z"/>
	<path id="XMLID_72_" fill="#231F20" d="M1421.268,358.085c0,0,149.516,56.895,136.284,277.861
		c-13.231,220.966-38.769,230.228,22.295,300.355c0,0-136.085-67.481-93.745-235.521
		C1528.443,532.741,1467.578,421.596,1421.268,358.085z"/>
	<path id="XMLID_73_" fill="#231F20" d="M1443.762,682.257c0,0,108.498,170.686,35.725,313.586s-138.931,215.673-113.791,269.923
		c0,0-86.005-80.712,17.201-297.709c0,0-5.293,86.005,6.616,104.529C1389.513,1072.586,1504.627,981.288,1443.762,682.257z"/>
	<path id="XMLID_74_" fill="#231F20" d="M1359.488,1064.918c0,0-87.174,292.034-232.465,353.056c0,0-2.906-90.08-53.758-139.479
		c-50.852-49.399-69.74-140.932-66.834-174.349c0,0,27.605,78.457,75.551,111.874s75.551,100.251,75.551,100.251
		s133.991-90.566,225.362-348.214L1359.488,1064.918z"/>
	<path id="XMLID_75_" fill="#231F20" d="M1109.589,1290.118c0,0-2.906,106.062-21.794,127.856c0,0-53.758-43.587-69.74-81.363
		c0,0,27.605,21.794,45.766,30.511c12.544,6.021,21.891-52.282,31.238-77.004
		C1099.246,1279.047,1109.589,1290.118,1109.589,1290.118z"/>
	<path id="XMLID_76_" fill="#231F20" d="M1063.822,1384.557c0,0-53.031,111.874-116.959,143.838c0,0,24.699-62.475,13.076-97.345
		c0,0,27.605,13.076,24.699,34.87c0,0,41.56-52.305,57.542-104.609L1063.822,1384.557z"/>
	<path id="XMLID_77_" fill="#231F20" d="M973.015,1471.005c0,0-109.208,66.107-167.931,159.093v-40.808
		c0,0,98.342-125.549,154.854-158.24L973.015,1471.005z"/>
	<path id="XMLID_78_" fill="#231F20" d="M1022.414,819.377c0,0,89.96-172.896-136.633-354.509l-28.998-30.511
		C867.445,428.151,1152.946,603.051,1022.414,819.377z"/>
	<path fill="#231F20" d="M893.832,582.553c0,0-26.392,23.247-88.747,28.332c-62.355-5.085-88.747-28.332-88.747-28.332
		c-118.412,140.205,88.747,161.999,88.747,161.999S1012.244,722.758,893.832,582.553z"/>
	<path fill="#231F20" d="M922.345,483.755c-25.56-28.4-58.538-58.298-117.26-58.298c-58.723,0-91.7,29.897-117.261,58.298
		s9.262,70.284,26.152,77.912c16.89,7.628,11.986,15.255,11.986,15.255c37.049,23.973,79.122,23.428,79.122,23.428
		s42.072,0.545,79.122-23.428c0,0-4.904-7.628,11.987-15.255C913.083,554.04,947.906,512.156,922.345,483.755z"/>
	<g>
		<path fill="#FFFFFF" d="M742.434,471.224c-25.469,13.088-30.648,26.688-30.648,26.688s43.765-42.105,65.393-13.067
			c23.749,31.887-20.366,57.526-50.125,56.663c0,0,56.739,12.823,66.471-28.604C802.655,474.032,767.534,458.326,742.434,471.224z"
			/>
		<path fill="#FFFFFF" d="M832.991,484.845c21.628-29.039,65.393,13.067,65.393,13.067s-5.179-13.6-30.648-26.688
			c-25.101-12.898-60.221,2.808-51.089,41.681c9.732,41.427,66.471,28.604,66.471,28.604
			C853.357,542.371,809.242,516.732,832.991,484.845z"/>
		<path fill="#FFFFFF" d="M712.435,548.848c0.283,0.304,0.452,0.47,0.452,0.47C712.773,549.234,712.619,549.072,712.435,548.848z"/>
		<path fill="#FFFFFF" d="M897.734,548.85c-0.184,0.223-0.338,0.384-0.451,0.468C897.282,549.318,897.452,549.153,897.734,548.85z"
			/>
		<path fill="#FFFFFF" d="M905.455,486.479c-14.166-41.408-100.37-49.58-100.37-49.58s-86.205,8.173-100.371,49.58
			c-12.971,37.915,4.653,59.068,7.72,62.369c-6.072-7.371-47.199-88.269,92.65-101.052c139.859,12.784,98.716,93.693,92.649,101.054
			C900.797,545.554,918.428,524.4,905.455,486.479z"/>
	</g>
	<path fill="#231F20" d="M805.085,163.389c-161.273-52.305-237.67-41.408-237.67-41.408
		c146.017,2.179,237.67,119.865,237.67,119.865s91.653-117.685,237.67-119.865C1042.755,121.981,966.357,111.085,805.085,163.389z"
		/>
	<path fill="#231F20" d="M1139.736,343.187c-111.671-7.679-207.526,49.368-271.485,76.278c-34.93,14.696-49.068,5.786-54.795-4.313
		c37.481-43.678,199.355-207.076,453.772-111.702c0,0-201.591-133.523-443.5,61.53c0,0,5.448-103.373,167.811-183.538
		c0,0-157.154,64.048-186.455,176.642C775.783,245.491,618.63,181.442,618.63,181.442C780.992,261.608,786.44,364.98,786.44,364.98
		c-241.909-195.053-443.5-61.53-443.5-61.53c254.418-95.375,416.291,68.024,453.773,111.702
		c-5.728,10.099-19.865,19.009-54.795,4.312c-63.959-26.909-159.814-83.956-271.485-76.278
		c-114.207,7.853-149.702,13.167-149.286,14.898c0,0,220.154-22.907,332.372,41.765s120.935,34.346,120.935,34.346h30.631h30.631
		c0,0,8.716,30.325,120.935-34.346c112.218-64.672,332.372-41.765,332.372-41.765
		C1289.438,356.353,1253.943,351.039,1139.736,343.187z"/>
	<path id="XMLID_86_" fill="none" stroke="#231F20" stroke-width="15.2555" stroke-miterlimit="10" d="M856.783,434.356
		c0,0,96.618,70.446,196.142,30.138s110.421-59.922,118.412-114.406"/>
	<path id="XMLID_87_" fill="#231F20" d="M1063.822,600.352c0,0,57.39,51.94,69.013,120.227c0,0-28.964-26.157-61.022-13.076
		c0,0,71.919,91.533,26.516,200.501c0,0,69.087-95.316,11.26-171.443c0,0,46.493,24.699,61.749,53.758
		C1171.337,790.319,1147.916,672.393,1063.822,600.352z"/>
	<path id="XMLID_88_" fill="#231F20" d="M1095.059,974.011c0,0,42.134,127.23,88.627,169.364c0,0,174.123-173.991,89.128-364.322
		c0,0,33.35,30.153,59.286,40.323c0,0-11.84-197.595-189.095-293.487c0,0,146.839,144.812,146.021,228.288
		c0,0-41.411-30.693-66.111-40.864c13.584,26.771,84.393,288.13-37.776,369.938
		C1185.14,1083.253,1138.647,1057.453,1095.059,974.011z"/>
	<path id="XMLID_89_" fill="#231F20" d="M1246.162,90.018c0,0,29.785,39.228,140.205-9.444s206.073,6.538,193.48,97.345
		s-24.943,122.771-3.876,143.838c0,0-33.417-4.359-50.852-23.973c0,0-18.888,91.533-44.314,109.694l-19.281-15.587
		c0,0,36.868-28,57.208-127.524c0,0,14.556,12.977,30.368,21.681c0,0-5.094-42.748,12.341-87.789
		c17.435-45.04-22.51-129.285-103.883-121.318c-81.373,7.967-80.273,46.277-152.192,44.097s-73.009-30.113-73.009-30.113
		L1246.162,90.018z"/>
	<path id="XMLID_90_" fill="#231F20" d="M1213.58,94.739c0,0,58.015,30.511,75.446,57.753c0,0-34.873-62.112-65.384-66.47
		C1193.131,81.663,1213.58,94.739,1213.58,94.739z"/>
	<path id="XMLID_91_" fill="#231F20" d="M1334.789,193.9c0,0,33.417,42.134,34.87,74.825c0,0,13.803-23.247,7.991-37.412
		c0,0,23.973,3.995,35.596-9.807c0,0-9.444,31.964,17.435,22.52c0,0,4.359,36.759-16.708,59.424c0,0,50.125,13.947,71.193-150.957
		c0,0-27.605,65.381-38.502,67.56c-10.897,2.179,4.359-23.463-9.444-38.61s-25.426,21.175-49.399,20.449
		C1363.847,201.165,1334.789,193.9,1334.789,193.9z"/>
</g>
</svg>
