<?xml version="1.0" encoding="UTF-8" standalone="no"?>
<svg id="svg22427" xmlns:rdf="http://www.w3.org/1999/02/22-rdf-syntax-ns#" xmlns="http://www.w3.org/2000/svg" height="370.77mm" width="302.67mm" version="1.1" xmlns:cc="http://creativecommons.org/ns#" xmlns:dc="http://purl.org/dc/elements/1.1/" viewBox="0 0 1072.4624 1313.7602">
<g id="layer1" transform="translate(1302.6 58.809)">
<g id="g23144" transform="matrix(.99629 .086101 -.086101 .99629 1542.3 197.76)">
<path id="rect23141" d="m-2219.7-65.676c-0.5471 0.01854-1.0964 0.0645-1.6328 0.13867-32.187 4.4406-60.173 23.245-80.885 54.359-17.495 26.256-29.148 60.737-34.154 97.305 66.144 112.81 114.68 113.3-0.01 0.01758-18.091-17.703-38.923-31.086-64.107-36.629-34.154-7.5401-75.936-15.496-177.23-22.648-57.848-4.1426-95.697 37.7-103.12 109.73-3.6664 35.555 0.9278 74.298 12.547 110 25.777 70.194-104.33 70.975-148.98 97.037-0.3576 0.20862-0.478 0.68541-0.8223 0.92383-1.669 1.1623-2.9498 2.6826-3.9922 4.3516-0.3841 0.62585-0.9019 1.0729-1.1933 1.7285-0.1094 0.25819-0.209 0.51965-0.3067 0.7832 0.094-0.26766 0.1904-0.53524 0.293-0.79687-1.0066 2.3544-1.5563 4.8891-1.2715 7.5117l78.23 705.96c0.6756 6.0499 4.9791 11.088 10.85 12.727l183.7 51.022c-1.039-0.3595-2.0281-0.8199-2.9531-1.3692 0.9212 0.544 1.9058 0.9998 2.9395 1.3574 0.3576 0.1165 0.5302 0.4478 0.8613 0.5372l25.48 6.7949 170.74 45.359c0.2458 0.07 0.4933 0.1254 0.7403 0.1797-0.2542-0.053-0.5083-0.1079-0.7598-0.1738l-170.74-45.359 393.45 109.29c0.093 0.025 0.1879 0.036 0.2812 0.061-0.3741-0.096-0.7466-0.203-1.1152-0.3281-1.3628-0.4692-2.6256-1.124-3.7656-1.9297 1.1441 0.8061 2.4142 1.4603 3.7851 1.9297 0.3616 0.1246 0.7273 0.2324 1.0957 0.3281 0.3864 0.095 0.7739 0.1834 1.1641 0.25 0.041 0.01 0.081 0.019 0.1211 0.025 0.028 0 0.057 0.01 0.086 0.01 0.01 0.001 0.013 0 0.019 0 0.2975 0.046 0.5956 0.083 0.8945 0.1113 0.073 0.01 0.1458 0.019 0.2188 0.025 0.017 0 0.034 0.0006 0.051 0 0 0.0002 0.01 0 0.01 0 0.3673 0.028 0.7357 0.044 1.1035 0.045 0.015 0.0001 0.03 0 0.045 0 0.9399-0.0007 1.8648-0.1076 2.7715-0.2988 0.036-0.01 0.07-0.02 0.1054-0.027 0.8636-0.1888 1.7112-0.4499 2.5372-0.7774 0.596-0.2087 1.073-0.6253 1.6386-0.9531 1.0464-0.5663 2.0571-1.1914 2.9512-1.9961 0.2119-0.2086 0.4771-0.268 0.6758-0.4766l394.88-406.05c2.9511-3.0399 4.4699-7.184 4.1719-11.416l-44.703-637.03c0-0.47684-0.3849-0.83421-0.4511-1.2812h0.027c0-0.028-0.014-0.0542-0.02-0.082 0.021-0.33452 0.1725-0.67092 0.1601-1.0332h-0.066c-0.1854-0.74506-0.8199-1.1915-1.1113-1.877 0.1179 0.30185 0.2402 0.6007 0.3633 0.90039-0.1263-0.30566-0.2532-0.61104-0.3731-0.91797-0.6623-1.6093-1.4074-3.0402-2.5625-4.3516-0.4862-0.54703-1.0515-1.0294-1.6386-1.4942-0.1501-0.11517-0.2907-0.23606-0.4473-0.3496-0.1318-0.0991-0.2547-0.20522-0.3887-0.30274-0.6755-0.47684-1.1127-1.2517-1.8769-1.6094-0.8213-0.41724-1.7595-0.26743-2.6231-0.50586-0.044-0.0119-0.089-0.0178-0.1328-0.0293-0.5773-0.204-1.0203-0.71182-1.6719-0.79687l-190.12-26.639v-0.0137c4.2317-12.338 7.4198-25.214 9.1484-38.625 10.371-80.02-26.672-136.73-104.31-159.62-0.3312-0.08212-0.6626 0.06614-0.9805-0.0332 1.5868 0.36508 3.0826 0.97034 4.4395 1.7773-1.357-0.80289-2.8532-1.405-4.4453-1.7695-0.6756-0.14901-1.3129-0.47555-2.0586-0.53516l-153.95-12.428c-0.5232-0.03311-1.0682-0.04198-1.6152-0.02344zm168.25 21.914c0.5629 1.4023 0.9191 2.9122 1.0117 4.5039v0.0039c-25.492 31.392 0.3175 9.9349 0 0.0059-0.091-1.5981-0.4458-3.1103-1.0059-4.5137zm273.04 216.18c0.3975 0.007 0.7966 0.0299 1.1953 0.0664-3.1949-0.27834-6.3835 0.35274-9.1055 2.2715-233.07 161.15-117.5 81.181-0.014-0.0195 2.3907-1.6657 5.1296-2.3654 7.9199-2.3184zm-1039.7 172.14c-0.5165 0.35763-1.1265 0.448-1.6074 0.86524-1.0729 0.95368-1.6404 2.2644-2.3848 3.4863 1.0464-1.6988 2.3252-3.1893 3.9941-4.3516zm-6.4395 11.1c-0.083 1.042-0.053 2.1042 0.1172 3.1738 0.8324 5.2801 4.4132 9.6738 9.3125 11.559-4.9138-1.8736-8.5059-6.2541-9.3398-11.57-0.1685-1.0591-0.1851-2.1186-0.09-3.1621zm478.66 824.7c-0.3491 0.1091-0.7049 0.2037-1.0644 0.2871-1.0843 0.2518-2.2126 0.3868-3.3731 0.3868-0.2252-0.033-0.4103-0.033-0.5957 0-0.4684 0-0.9394-0.033-1.4101-0.08 0.472 0.044 0.9457 0.074 1.4199 0.074h0.012c0.1813-0.03 0.3503 0 0.5839 0 1.1568 0 2.2821-0.1312 3.3633-0.3809 0.3604-0.083 0.7165-0.1801 1.0664-0.289zm227.89 60.586c-0.8874 0.8046-1.9367 1.4299-2.9804 1.9961 0.8874-0.4768 1.8481-0.834 2.623-1.5195 0.1589-0.149 0.2117-0.3574 0.3574-0.4766z" fill="#f3b350"/>
<g>
<path id="path11248" d="m-1978.2 173.96c-15.676 30.458-37.938 56.803-62.674 78.291l114.62 19.191 108.51-74.982-160.46-22.5zm187.32 40.16-116.92 80.795 72.51 612.8 86.814-89.289-42.408-604.31zm-862.75 68.502-115.57 67.473 162.28 35.377 33.32-21.189c-34.125-14.365-61.425-44.496-80.022-81.66zm409.57 63.686-127.11 90.57 156.2 34.064 136.05-93.998-165.14-30.637zm-548.6 29.162 74.834 675.33 153.87 42.738-62.168-681.74-166.54-36.328zm739.83 19.664-143.2 98.943 79.305 703.04 130.66-134.38-66.758-667.61zm-344.05 66.656 60.113 694.85 191.45 53.168-80.139-710.64-171.43-37.371z" fill="#aea9d3"/>
<path id="path11256" d="m-1965.9 145.59c-3.3975 9.8349-7.5705 19.252-12.279 28.371h0.029l160.44 22.5 31.432-21.725c2.7337-1.9046 5.9231-2.545 9.1231-2.252-3.1949-0.27834-6.3835 0.35274-9.1055 2.2715l-139.92 96.68 4.9453 0.83594c6.5261 1.0729 11.534 6.3472 12.34 12.934l1.125 9.7148 116.95-80.793 42.408 604.31-86.844 89.258 3.3379 28.225c0.5298 4.4704-0.9809 8.9395-4.1426 12.158l-124.19 126.66c-2.8611 2.9206-6.7047 4.4707-10.639 4.4707-1.6398 0-3.3086-0.2697-4.918-0.836-5.4532-1.9372-9.3276-6.8242-9.8945-12.576l-0.332-3.0391-130.65 134.35-79.305-703.04 143.2-98.945-1.3399-13.59-24.768-4.5898-136.05 94.01-156.17-34.059-26.256 18.686 0.5293 6.1992 171.42 37.402-1.1914-10.609c-0.1491-1.3635-0.1099-2.7208 0.1035-4.0391-0.2096 1.3117-0.2437 2.6627-0.088 4.0215l1.1914 10.609 80.141 710.67-191.46-53.191 0.3574 4.1132c0.6623 1.6689 1.0058 3.4872 1.0058 5.3946 0 8.2255-6.6748 14.9-14.9 14.9-0.2252-0.033-0.4103-0.033-0.5957 0-1.2716 0-2.5628-0.178-3.8145-0.5059l-170.74-45.359 393.45 109.29c0.4779 0.1303 0.9608 0.2277 1.4453 0.3105 0.041 0.01 0.081 0.019 0.1211 0.025 0.028 0 0.057 0.01 0.086 0.01h0.02c0.2975 0.046 0.5956 0.083 0.8945 0.1113 0.073 0.01 0.1457 0.019 0.2187 0.025 0.017 0 0.034 0.0006 0.051 0 0 0.0002 0.01 0 0.01 0 0.3673 0.028 0.7357 0.044 1.1035 0.045 0.015 0.0001 0.03 0 0.045 0 0.9399-0.0007 1.8649-0.1076 2.7715-0.2988 0.4567-0.092 0.9087-0.2042 1.3555-0.3379-0.4123 0.1229-0.8296 0.2231-1.25 0.3105 0.8636-0.1888 1.7112-0.4498 2.5371-0.7773 0.5961-0.2087 1.0731-0.6253 1.6387-0.9531 1.0464-0.5663 2.0571-1.1914 2.9511-1.9961 0.212-0.2086 0.4771-0.268 0.6758-0.4766l394.88-406.06c2.9511-3.0399 4.4699-7.184 4.1719-11.416l-44.703-637.03c0-0.47684-0.3849-0.83421-0.4511-1.2812h0.027c0-0.028-0.014-0.0542-0.02-0.082 0.021-0.33452 0.1725-0.67092 0.1601-1.0332h-0.066c-0.1854-0.74506-0.8199-1.1915-1.1113-1.877 0.1179 0.30185 0.2402 0.6007 0.3633 0.90039-0.1263-0.30566-0.2532-0.61104-0.3731-0.91797-0.6623-1.6093-1.4075-3.0402-2.5625-4.3516-0.4917-0.55315-1.064-1.0402-1.6582-1.5098 0.597 0.46345 1.174 0.94292 1.6875 1.5176-0.6663-0.73695-1.3476-1.295-2.1152-1.8516-0.1318-0.0991-0.2547-0.20522-0.3887-0.30274-0.6755-0.47684-1.1127-1.2517-1.8769-1.6094-0.8213-0.41724-1.7595-0.26743-2.6231-0.50586-0.044-0.0119-0.089-0.0178-0.1328-0.0293-0.5773-0.204-1.0203-0.71181-1.6719-0.79687l-190.14-26.643zm-157.95 1098.8c0.4441-0.133 0.8831-0.2852 1.3164-0.4571-0.4321 0.1714-0.8712 0.3244-1.3164 0.4571zm306.14-1047.9-108.49 74.984 108.51-74.982-0.019-0.002zm-852.85 61.582-146.66 85.594c-0.3576 0.20862-0.478 0.68541-0.8223 0.92383-1.669 1.1623-2.9498 2.6826-3.9922 4.3516-0.3841 0.62585-0.9019 1.0729-1.1933 1.7285-0.1094 0.25819-0.209 0.51965-0.3067 0.7832 0.094-0.26766 0.1904-0.53524 0.293-0.79687-1.0066 2.3544-1.5563 4.8891-1.2715 7.5117l78.23 705.96c0.6756 6.0499 4.9791 11.088 10.85 12.727l183.7 51.022c-5.5128-1.9074-9.6257-6.6465-10.162-12.518h-0.014l-1.996-21.785-153.87-42.766-74.834-675.3 47.682 10.393 118.83 25.92-0.3848-4.2617c-0.5165-5.5731 2.1467-10.937 6.8555-13.947l12.756-8.1074-162.28-35.404 115.57-67.443c-2.2345-4.4704-4.2604-9.0598-6.2578-13.709l-5.9761-13.467zm-147.5 86.52c-0.5165 0.35763-1.1265 0.448-1.6074 0.86524-1.0729 0.95368-1.6403 2.2644-2.3847 3.4863 1.0464-1.6988 2.3252-3.1893 3.9941-4.3516zm-6.4394 11.1c-0.083 1.042-0.053 2.1042 0.1171 3.1738 0.8324 5.2801 4.4132 9.6738 9.3125 11.559-4.9138-1.8736-8.5059-6.2541-9.3398-11.57-0.1685-1.0591-0.1849-2.1186-0.09-3.1621zm706.55 885.29c-0.8874 0.8046-1.9367 1.4299-2.9804 1.9961 0.8874-0.4768 1.8481-0.834 2.623-1.5195 0.1589-0.149 0.2117-0.3574 0.3574-0.4766zm-18.623 1.3125c1.1441 0.8061 2.4142 1.4603 3.7851 1.9297 0.388 0.1337 0.7799 0.2512 1.1758 0.3516-0.4013-0.1006-0.8002-0.2175-1.1953-0.3516-1.3628-0.4692-2.6256-1.124-3.7656-1.9297z" fill="#9a62a8"/>
<path id="path11324" d="m-2218.8-35.812c-23.186 3.6955-42.917 17.554-58.652 41.188-19.283 28.938-30.31 70.96-31.621 113.49 19.193 27.18 35.139 58.533 49.98 88.336 9.1488 18.329 18.029 36.15 26.91 51.021 11.296 16.809 21.697 29.385 28.135 29.922 16.66-2.8908 30.31-6.1991 38.178-9.7754 47.892-21.786 54.448-29.802 38.891-92.119-12.606-50.396-24.794-150.18 9.4785-204.36 2.0571-3.1889 4.202-6.1986 6.4961-9l-107.79-8.7031zm-366.38 92.199c-51.856 0-63.48 58.233-66.043 83.268-8.6123 83.388 34.305 187.61 104.64 202.27l6.9141 1.4609c26.584 5.6327 76.057 16.064 124.4 15.855-27.895-20.862-47.18-59.755-53.975-112.95-8.2546-64.85 5.2758-139.59 39.936-172.29-30.399-5.8711-72.031-11.862-150.53-17.436-1.8186-0.11524-3.6074-0.17773-5.3359-0.17773zm511.72 220.63c-27.507 18.18-55.552 30.667-79.096 36.24-5.632 1.3411-11.265 2.0273-16.809 2.0273-3.9631 0-8.135-0.35889-12.457-1.1934-3.5764 0.80467-7.3915 1.5797-11.295 2.2949-4.2916 2.3842-8.0174 4.6198-11.832 6.8848l167.16 30.996c6.4969 1.2219 11.444 6.5855 12.1 13.172l66.369 663.7 96.889-98.824-74.834-632.5-136.2-22.799zm-461.32 97.84-61.275 39.012 62.795 688.38 165.64 44.047-60.26-696.61c-0.4503-5.2453 1.9077-10.37 6.1992-13.41l78.23-55.762c-12.844 2.9207-25.928 5.4532-39.398 6.9434-10.967 1.2219-22.263 1.7598-33.559 1.7598-44.673 0-89.496-8.3749-118.38-14.365z" fill="#fed3a4"/>
<path id="path11344" d="m-2065.4-22.824c-10.967 3.0101-19.848 9.6571-26.822 20.654-26.852 42.469-18.15 131.61-5.752 181.2 8.6123 34.422 10.58 57.669 4.2324 75.908 50.515-32.395 99.034-86.636 107.47-151.81 8.3447-64.195-18.299-106.55-79.127-125.95zm-326.78 110.19c-1.1259 0-2.2347 0.14924-3.3672 0.44727-32.306 8.3745-53.286 82.106-44.047 154.71 3.3379 26.226 21.338 115.55 89.139 103.06 68.784-12.666 93.103-25.781 118.17-40.771-19.045-17.375-38.683-50.961-64.254-96.201-28.909-51.171-68.488-121.24-95.639-121.24z" fill="#ec974e"/>
</g>
</g>
</g>
</svg>
